<svg xmlns="http://www.w3.org/2000/svg" viewBox="0 0 1439.2 188.9"><path d="M182.3 0H27.5L0 27.5l105 161.3L210.1 27.6 182.3 0zM22.1 52L7.3 30.4h92.1L77.7 52.1 22.1 52zm80.6 123.8l-21.4-32V54.1l21.4-21v142.7zM7.7 26.1l21-20.7h151.8l21 20.7H7.7zm120.7 117.7l-21.1 32V33.1l21.1 21.1v89.6zm3.3-91.7l-21.4-21.6h92.1l-14.8 21.6h-55.9zm123.2-20.8V15.9h101.2v15.4h-42.6V173h-16.1V31.3h-42.5zm128.4-15.4h90.4v15.4H399v49.2h74v15.4h-74v61.7h74V173h-89.8V15.9zm274.3 29.2l-12.4 9.5c-6.9-8.9-15.1-15.6-24.7-20.2s-20.2-6.9-31.7-6.9c-12.6 0-24.2 3-35 9-10.7 6-19 14.1-24.9 24.2S520 82.3 520 94.9c0 19.2 6.6 35.1 19.8 47.9s29.8 19.2 49.9 19.2c22.1 0 40.6-8.6 55.5-25.8l12.4 9.4c-7.9 10-17.7 17.7-29.4 23.1-11.8 5.4-24.9 8.2-39.4 8.2-27.6 0-49.4-9.1-65.3-27.4-13.4-15.4-20.1-34.1-20.1-56 0-23 8.1-42.3 24.3-58C543.8 19.8 564.1 12 588.5 12c14.7 0 28 2.9 39.9 8.7 11.9 5.8 21.6 13.9 29.2 24.4zm23.2-29.2h15.8v65.9H777V15.9h15.8V173H777V97.2h-80.4V173h-15.8V15.9zm151.9 0h90.4v15.4h-74.7v49.2h74v15.4h-74v61.7h74V173h-89.8V15.9zm120 157.1l22.6-157.1h2.6l64.2 128.9 63.5-128.9h2.5l22.7 157.1h-15.5l-15.6-112.3-55.8 112.3h-4L983.5 59.8 968 173h-15.3zm207.7-157.1h90.4v15.4h-74.7v49.2h74v15.4h-74v61.7h74V173h-89.8V15.9zm112.3 15.4V15.9H1374v15.4h-42.6V173h-16.1V31.3h-42.6zm156.8-3.7c0 3.5-.9 6.7-2.6 9.6-1.7 3-4.1 5.3-7 7s-6.2 2.6-9.6 2.6c-3.4 0-6.6-.9-9.6-2.6s-5.3-4.1-7-7c-1.7-3-2.6-6.1-2.6-9.5 0-3.4.9-6.6 2.6-9.6 1.7-3 4.1-5.4 7-7.1 3-1.7 6.2-2.6 9.6-2.6s6.6.9 9.6 2.6 5.3 4.1 7 7c1.7 3.1 2.6 6.3 2.6 9.6zm-2.7 0c0-2.9-.7-5.7-2.2-8.3-1.5-2.6-3.5-4.6-6-6.1s-5.3-2.2-8.2-2.2c-2.9 0-5.7.7-8.3 2.2-2.6 1.5-4.6 3.5-6.1 6.1-1.5 2.6-2.2 5.4-2.2 8.3 0 2.9.7 5.7 2.2 8.3 1.5 2.6 3.5 4.6 6.1 6.1s5.3 2.2 8.3 2.2c2.9 0 5.6-.7 8.2-2.2 2.6-1.5 4.6-3.5 6-6.1 1.5-2.5 2.2-5.3 2.2-8.3zm-24.5-11.1h9.2c2.1 0 3.7.2 4.6.6.9.4 1.7 1.1 2.3 2.1.6 1 .9 2.1.9 3.4 0 1.1-.2 2.1-.6 2.9-.3.6-1 1.3-2.1 2 1 .5 1.7 1.1 2 1.7.3.6.5 1.7.5 3.3V35c0 1.2.3 2.2.8 2.9l.4.6h-3.9c-.3-.9-.4-2-.5-3.3l-.2-2.7c-.1-1-.2-1.7-.5-2.1-.3-.4-.6-.7-1.1-.9-.5-.2-1.4-.3-2.8-.3h-5.5v9.2h-3.5V16.5zm3.5 3.1v6.5h5.4c1.6 0 2.8-.2 3.3-.6.9-.5 1.3-1.4 1.3-2.7 0-1.1-.3-1.9-.9-2.5-.6-.5-1.8-.8-3.5-.8h-5.6z"/></svg>